<svg width="10" height="6" viewBox="0 0 10 6" fill="none" xmlns="http://www.w3.org/2000/svg">
<path d="M4.99583 5.75001C4.89583 5.75001 4.80208 5.73264 4.71458 5.69792C4.62708 5.6632 4.5486 5.61112 4.47916 5.54167L0.527909 1.59042C0.370409 1.43292 0.295131 1.25348 0.302076 1.05209C0.30902 0.8507 0.388881 0.673616 0.541659 0.520838C0.694437 0.368061 0.87152 0.291672 1.07291 0.291672C1.2743 0.291672 1.45138 0.368061 1.60416 0.520838L4.99999 3.93751L8.41666 0.520838C8.56944 0.368061 8.74652 0.295144 8.94791 0.302088C9.1493 0.309033 9.32638 0.388894 9.47916 0.541672C9.63194 0.69445 9.70833 0.871533 9.70833 1.07292C9.70833 1.27431 9.62958 1.45334 9.47208 1.61001L5.52083 5.54167C5.44583 5.61112 5.36458 5.6632 5.27708 5.69792C5.18958 5.73264 5.09583 5.75001 4.99583 5.75001Z" fill="#1C1C1C"/>
</svg>
