<svg width="72" height="48" viewBox="0 0 72 48" fill="none" xmlns="http://www.w3.org/2000/svg">
<path d="M0 24C0 10.7452 10.7452 0 24 0H48C61.2548 0 72 10.7452 72 24C72 37.2548 61.2548 48 48 48H24C10.7452 48 0 37.2548 0 24Z" fill="#2D61DE"/>
<mask id="mask0_2002_377" style="mask-type:alpha" maskUnits="userSpaceOnUse" x="24" y="12" width="24" height="24">
<rect x="24" y="12" width="24" height="24" fill="#D9D9D9"/>
</mask>
<g mask="url(#mask0_2002_377)">
<path d="M40.175 25H29C28.7167 25 28.4792 24.9042 28.2875 24.7125C28.0958 24.5208 28 24.2833 28 24C28 23.7167 28.0958 23.4792 28.2875 23.2875C28.4792 23.0958 28.7167 23 29 23H40.175L35.275 18.1C35.075 17.9 34.9792 17.6667 34.9875 17.4C34.9958 17.1333 35.1 16.9 35.3 16.7C35.5 16.5167 35.7333 16.4208 36 16.4125C36.2667 16.4042 36.5 16.5 36.7 16.7L43.3 23.3C43.4 23.4 43.4708 23.5083 43.5125 23.625C43.5542 23.7417 43.575 23.8667 43.575 24C43.575 24.1333 43.5542 24.2583 43.5125 24.375C43.4708 24.4917 43.4 24.6 43.3 24.7L36.7 31.3C36.5167 31.4833 36.2875 31.575 36.0125 31.575C35.7375 31.575 35.5 31.4833 35.3 31.3C35.1 31.1 35 30.8625 35 30.5875C35 30.3125 35.1 30.075 35.3 29.875L40.175 25Z" fill="white"/>
</g>
<path d="M2.5 24C2.5 11.5736 12.5736 1.5 25 1.5H47C59.4264 1.5 69.5 11.5736 69.5 24C69.5 36.4264 59.4264 46.5 47 46.5H25C12.5736 46.5 2.5 36.4264 2.5 24Z" stroke="#2D61DE"/>
</svg>
