<svg width="20" height="20" viewBox="0 0 20 20" fill="none" xmlns="http://www.w3.org/2000/svg">
<mask id="mask0_2002_367" style="mask-type:alpha" maskUnits="userSpaceOnUse" x="0" y="0" width="20" height="20">
<rect width="20" height="20" fill="#D9D9D9"/>
</mask>
<g mask="url(#mask0_2002_367)">
<path d="M9.99994 14.0625L6.58328 16.1042C6.4305 16.1875 6.28119 16.2222 6.13536 16.2083C5.98953 16.1945 5.86105 16.1458 5.74994 16.0625C5.63883 15.9792 5.5555 15.8646 5.49994 15.7188C5.44439 15.5729 5.43744 15.4236 5.47911 15.2708L6.37494 11.4583L3.35411 8.89584C3.22911 8.78473 3.15272 8.65626 3.12494 8.51043C3.09717 8.36459 3.10411 8.22223 3.14578 8.08334C3.18744 7.94445 3.26383 7.82987 3.37494 7.73959C3.48605 7.64932 3.62494 7.59723 3.79161 7.58334L7.74994 7.22918L9.31244 3.60418C9.38189 3.4514 9.47911 3.33682 9.60411 3.26043C9.72911 3.18404 9.86105 3.14584 9.99994 3.14584C10.1388 3.14584 10.2708 3.18404 10.3958 3.26043C10.5208 3.33682 10.618 3.4514 10.6874 3.60418L12.2499 7.25001L16.2083 7.58334C16.3749 7.59723 16.5138 7.65279 16.6249 7.75001C16.7361 7.84723 16.8124 7.96529 16.8541 8.10418C16.8958 8.24307 16.8992 8.38195 16.8645 8.52084C16.8298 8.65973 16.7499 8.78473 16.6249 8.89584L13.6249 11.4583L14.5208 15.2708C14.5624 15.4236 14.5555 15.5729 14.4999 15.7188C14.4444 15.8646 14.3611 15.9792 14.2499 16.0625C14.1388 16.1458 14.0104 16.1945 13.8645 16.2083C13.7187 16.2222 13.5694 16.1875 13.4166 16.1042L9.99994 14.0625Z" fill="#FFBE5C"/>
</g>
</svg>
